<svg width="136" height="135" viewBox="0 0 136 135" fill="none" xmlns="http://www.w3.org/2000/svg">
<path d="M7.70196 1.23567L134.265 127.798C135.912 129.446 135.912 132.117 134.265 133.765C132.617 135.412 129.946 135.412 128.298 133.765L117.602 123.068C114.267 125.277 110.268 126.562 105.969 126.562H30.0314C18.3816 126.562 8.93763 117.118 8.93763 105.469V29.5312C8.93763 25.232 10.2238 21.2331 12.4324 17.8985L1.73581 7.20182C0.0882164 5.55432 0.0882164 2.88317 1.73581 1.23567C3.38331 -0.411922 6.05446 -0.411922 7.70196 1.23567ZM107.714 113.18L76.4376 81.9036V88.5937C76.4376 90.9233 74.5485 92.8125 72.2189 92.8125H38.4689C36.139 92.8125 34.2501 90.9233 34.2501 88.5937V54.8437C34.2501 52.5138 36.139 50.625 38.4689 50.625H45.1589L36.7214 42.1875H21.5939V103.359C21.5939 109.185 26.3158 113.906 32.1408 113.906H103.86C105.22 113.906 106.52 113.649 107.714 113.18ZM53.5964 59.0625H42.6876V84.375H68.0001V73.4661L53.5964 59.0625ZM114.406 96.0078V42.1875H60.5864L27.046 8.64708C28.0213 8.50896 29.018 8.4375 30.0314 8.4375H105.969C117.619 8.4375 127.063 17.8815 127.063 29.5312V105.469C127.063 106.482 126.991 107.479 126.853 108.454L114.406 96.0078Z" fill="white"/>
</svg>
