<svg width="132" height="95" viewBox="0 0 132 95" fill="none" xmlns="http://www.w3.org/2000/svg">
<path d="M35 66C38.4242 66 41.2 63.2243 41.2 59.8C41.2 56.3758 38.4242 53.6 35 53.6C31.5759 53.6 28.8 56.3758 28.8 59.8C28.8 63.2243 31.5759 66 35 66Z" fill="black" stroke="white" stroke-width="8" stroke-linecap="round" stroke-linejoin="round"/>
<path d="M4 28.8V7.72C4 5.66551 5.66551 4 7.72 4H124.28C126.335 4 128 5.66551 128 7.72V28.8M4 28.8V87.08C4 89.1347 5.66551 90.8 7.72 90.8H124.28C126.335 90.8 128 89.1347 128 87.08V28.8M4 28.8H128" stroke="white" stroke-width="8" stroke-linecap="round" stroke-linejoin="round"/>
</svg>
