<svg width="170" height="154" viewBox="0 0 170 154" fill="none" xmlns="http://www.w3.org/2000/svg">
<path d="M4.10918 112.312C3.86194 112.312 3.5838 112.281 3.33656 112.188C2.13127 111.756 1.5132 110.427 1.91496 109.221C3.98559 103.411 7.57059 98.3121 12.3609 94.449C13.3498 93.6455 14.8023 93.8 15.6058 94.7889C16.4093 95.7779 16.2549 97.2304 15.2659 98.0648C11.1556 101.372 8.06507 105.76 6.30349 110.767C5.96354 111.725 5.06723 112.312 4.10918 112.312Z" fill="white"/>
<path d="M4.11032 132.894C3.15227 132.894 2.25606 132.307 1.9161 131.349C0.649003 127.733 0 124.024 0 120.285C0 119.018 1.05077 117.967 2.31787 117.967C3.58497 117.967 4.63574 119.018 4.63574 120.285C4.63574 123.499 5.19206 126.713 6.30463 129.803C6.7373 131.009 6.08824 132.338 4.88294 132.77C4.6357 132.863 4.35756 132.894 4.11032 132.894Z" fill="white"/>
<path d="M33.2246 153.508C29.9487 153.508 26.7036 153.013 23.5513 152.055C22.3151 151.684 21.6352 150.386 22.0061 149.15C22.377 147.914 23.675 147.234 24.9112 147.605C27.5999 148.439 30.4123 148.841 33.2246 148.841C48.9861 148.841 61.8116 136.015 61.8116 120.254C61.8116 118.647 61.6571 116.978 61.3481 115.216C61.1317 113.949 61.9662 112.744 63.2333 112.528C64.5004 112.311 65.7057 113.146 65.922 114.413C66.2929 116.452 66.4783 118.369 66.4783 120.285C66.4474 138.612 51.5512 153.508 33.2246 153.508Z" fill="white"/>
<path d="M13.8151 146.554C13.2897 146.554 12.7953 146.4 12.3626 146.029C10.601 144.607 9.17935 143.247 7.97406 141.856C7.13963 140.898 7.26328 139.415 8.22133 138.58C9.17938 137.746 10.6628 137.87 11.4973 138.828C12.5171 140.002 13.7533 141.176 15.2676 142.413C16.2566 143.216 16.4111 144.669 15.6076 145.658C15.1749 146.245 14.495 146.554 13.8151 146.554Z" fill="white"/>
<path d="M58.6896 105.11C57.9479 105.11 57.2371 104.77 56.7735 104.091C51.427 96.3025 42.6191 91.6667 33.224 91.6667C30.4116 91.6667 27.5993 92.0685 24.9105 92.9029C23.7053 93.2738 22.4072 92.5939 22.0055 91.3577C21.6037 90.1215 22.3145 88.8235 23.5507 88.4526C26.703 87.4946 29.948 87 33.224 87C44.1643 87 54.3938 92.4085 60.6057 101.433C61.3165 102.483 61.0693 103.936 60.0185 104.647C59.6168 104.987 59.1532 105.11 58.6896 105.11Z" fill="white"/>
<path d="M22.6841 138.394C18.6974 138.394 15.4524 135.149 15.4524 131.162C15.4524 127.175 18.6974 123.93 22.6841 123.93C26.6709 123.93 29.9159 127.175 29.9159 131.162C29.9159 135.149 26.6709 138.394 22.6841 138.394ZM22.6841 128.566C21.2625 128.566 20.0881 129.741 20.0881 131.162C20.0881 132.584 21.2625 133.758 22.6841 133.758C24.1058 133.758 25.2801 132.584 25.2801 131.162C25.2801 129.741 24.1058 128.566 22.6841 128.566Z" fill="white"/>
<path d="M27.5972 133.48C26.3301 133.48 25.2793 132.429 25.2793 131.162V111.383C25.2793 108.416 27.1336 105.975 30.0078 105.202L39.8355 102.513C42.8024 101.71 44.6567 102.483 45.6766 103.255C47.16 104.399 47.9017 106.222 47.9017 108.694V127.886C47.9017 129.153 46.851 130.204 45.5838 130.204C44.3167 130.204 43.266 129.153 43.266 127.886V108.694C43.266 107.644 43.0496 107.087 42.8333 106.964C42.617 106.809 41.968 106.747 41.0099 106.995L31.1822 109.683C30.3168 109.931 29.8842 110.487 29.8842 111.383V131.162C29.9151 132.429 28.8643 133.48 27.5972 133.48Z" fill="white"/>
<path d="M40.6718 135.119C36.6851 135.119 33.4401 131.874 33.4401 127.888C33.4401 123.901 36.6851 120.656 40.6718 120.656C44.6585 120.656 47.9036 123.901 47.9036 127.888C47.9036 131.874 44.6585 135.119 40.6718 135.119ZM40.6718 125.292C39.2502 125.292 38.0758 126.466 38.0758 127.888C38.0758 129.309 39.2502 130.484 40.6718 130.484C42.0934 130.484 43.2678 129.309 43.2678 127.888C43.2678 126.466 42.0934 125.292 40.6718 125.292Z" fill="white"/>
<path d="M27.599 118.739C26.5791 118.739 25.652 118.059 25.3738 117.039C25.0339 115.803 25.7756 114.536 27.0118 114.196L44.9984 109.282C46.2346 108.942 47.5017 109.684 47.8417 110.92C48.1816 112.156 47.4399 113.423 46.2037 113.763L28.217 118.677C28.0007 118.739 27.7844 118.739 27.599 118.739Z" fill="white"/>
<path d="M55.1092 25.3119C54.8619 25.3119 54.5838 25.2811 54.3366 25.1884C53.1313 24.7557 52.5132 23.4267 52.915 22.2214C54.9856 16.4113 58.5706 11.3121 63.3609 7.44899C64.3498 6.64546 65.8023 6.79995 66.6058 7.78891C67.4093 8.77787 67.2549 10.2304 66.2659 11.0648C62.1556 14.3717 59.0651 18.7601 57.3035 23.7667C56.9635 24.7247 56.0672 25.3119 55.1092 25.3119Z" fill="white"/>
<path d="M55.1103 45.8939C54.1523 45.8939 53.2561 45.3067 52.9161 44.3486C51.649 40.7327 51 37.0242 51 33.2847C51 32.0176 52.0508 30.9668 53.3179 30.9668C54.585 30.9668 55.6357 32.0176 55.6357 33.2847C55.6357 36.4988 56.1921 39.7129 57.3046 42.8034C57.7373 44.0087 57.0882 45.3376 55.8829 45.7702C55.6357 45.863 55.3576 45.8939 55.1103 45.8939Z" fill="white"/>
<path d="M84.2246 66.5077C80.9487 66.5077 77.7036 66.0133 74.5513 65.0552C73.3151 64.6843 72.6352 63.3863 73.0061 62.1501C73.377 60.9139 74.675 60.234 75.9112 60.6049C78.5999 61.4393 81.4123 61.8408 84.2246 61.8408C99.9861 61.8408 112.812 49.0153 112.812 33.2537C112.812 31.6467 112.657 29.9778 112.348 28.2162C112.132 26.9493 112.966 25.744 114.233 25.5276C115.5 25.3113 116.706 26.1457 116.922 27.4127C117.293 29.4524 117.478 31.3689 117.478 33.285C117.447 51.6116 102.551 66.5077 84.2246 66.5077Z" fill="white"/>
<path d="M64.8151 59.5542C64.2897 59.5542 63.7953 59.3996 63.3626 59.0288C61.601 57.6072 60.1794 56.247 58.9741 54.8563C58.1396 53.8983 58.2633 52.4148 59.2213 51.5804C60.1794 50.746 61.6628 50.8699 62.4973 51.8279C63.5171 53.0023 64.7533 54.1764 66.2676 55.4126C67.2566 56.2161 67.4111 57.669 66.6076 58.6579C66.1749 59.2451 65.495 59.5542 64.8151 59.5542Z" fill="white"/>
<path d="M109.69 18.1104C108.948 18.1104 108.237 17.7704 107.774 17.0905C102.427 9.30247 93.6191 4.66667 84.224 4.66667C81.4117 4.66667 78.5993 5.0685 75.9106 5.90293C74.7053 6.27379 73.4073 5.59388 73.0055 4.35769C72.6038 3.12149 73.3146 1.82348 74.5508 1.45262C77.7031 0.494571 80.9481 0 84.224 0C95.1644 0 105.394 5.40848 111.606 14.4327C112.317 15.4835 112.069 16.936 111.019 17.6468C110.617 17.9867 110.153 18.1104 109.69 18.1104Z" fill="white"/>
<path d="M73.6841 51.394C69.6974 51.394 66.4524 48.149 66.4524 44.1622C66.4524 40.1755 69.6974 36.9305 73.6841 36.9305C77.6709 36.9305 80.9159 40.1755 80.9159 44.1622C80.9159 48.149 77.6709 51.394 73.6841 51.394ZM73.6841 41.5662C72.2625 41.5662 71.0881 42.7406 71.0881 44.1622C71.0881 45.5839 72.2625 46.7582 73.6841 46.7582C75.1058 46.7582 76.2801 45.5839 76.2801 44.1622C76.2801 42.7406 75.1058 41.5662 73.6841 41.5662Z" fill="white"/>
<path d="M78.5971 46.4801C77.33 46.4801 76.2792 45.4293 76.2792 44.1622V24.3832C76.2792 21.4163 78.1336 18.9748 81.0077 18.2022L90.8355 15.5135C93.8023 14.7099 95.6566 15.4825 96.6765 16.2551C98.1599 17.3986 98.9017 19.222 98.9017 21.6944V40.8863C98.9017 42.1534 97.8509 43.2042 96.5838 43.2042C95.3167 43.2042 94.2659 42.1534 94.2659 40.8863V21.6944C94.2659 20.6437 94.0496 20.0874 93.8333 19.9638C93.6169 19.8092 92.9679 19.7475 92.0099 19.9947L82.1821 22.6834C81.3168 22.9307 80.8841 23.4869 80.8841 24.3832V44.1622C80.915 45.4293 79.8642 46.4801 78.5971 46.4801Z" fill="white"/>
<path d="M91.6718 48.1193C87.6851 48.1193 84.4401 44.8743 84.4401 40.8876C84.4401 36.9008 87.6851 33.6558 91.6718 33.6558C95.6585 33.6558 98.9036 36.9008 98.9036 40.8876C98.9036 44.8743 95.6585 48.1193 91.6718 48.1193ZM91.6718 38.2916C90.2502 38.2916 89.0758 39.4659 89.0758 40.8876C89.0758 42.3092 90.2502 43.4836 91.6718 43.4836C93.0934 43.4836 94.2678 42.3092 94.2678 40.8876C94.2678 39.4659 93.0934 38.2916 91.6718 38.2916Z" fill="white"/>
<path d="M78.599 31.7388C77.5792 31.7388 76.652 31.0589 76.3739 30.039C76.0339 28.8028 76.7757 27.5357 78.0119 27.1958L95.9985 22.2819C97.2347 21.942 98.5018 22.6836 98.8417 23.9198C99.1817 25.156 98.44 26.4232 97.2038 26.7632L79.2171 31.677C79.0008 31.7388 78.7844 31.7388 78.599 31.7388Z" fill="white"/>
<path d="M107.109 112.312C106.862 112.312 106.584 112.281 106.337 112.188C105.131 111.756 104.513 110.427 104.915 109.221C106.986 103.411 110.571 98.3121 115.361 94.449C116.35 93.6455 117.802 93.8 118.606 94.7889C119.409 95.7779 119.255 97.2304 118.266 98.0648C114.156 101.372 111.065 105.76 109.303 110.767C108.964 111.725 108.067 112.312 107.109 112.312Z" fill="white"/>
<path d="M107.11 132.894C106.152 132.894 105.256 132.307 104.916 131.349C103.649 127.733 103 124.024 103 120.285C103 119.018 104.051 117.967 105.318 117.967C106.585 117.967 107.636 119.018 107.636 120.285C107.636 123.499 108.192 126.713 109.305 129.803C109.737 131.009 109.088 132.338 107.883 132.77C107.636 132.863 107.358 132.894 107.11 132.894Z" fill="white"/>
<path d="M136.225 153.508C132.949 153.508 129.704 153.013 126.551 152.055C125.315 151.684 124.635 150.386 125.006 149.15C125.377 147.914 126.675 147.234 127.911 147.605C130.6 148.439 133.412 148.841 136.225 148.841C151.986 148.841 164.812 136.015 164.812 120.254C164.812 118.647 164.657 116.978 164.348 115.216C164.132 113.949 164.966 112.744 166.233 112.528C167.5 112.311 168.706 113.146 168.922 114.413C169.293 116.452 169.478 118.369 169.478 120.285C169.447 138.612 154.551 153.508 136.225 153.508Z" fill="white"/>
<path d="M116.815 146.554C116.29 146.554 115.795 146.4 115.363 146.029C113.601 144.607 112.179 143.247 110.974 141.856C110.14 140.898 110.263 139.415 111.221 138.58C112.179 137.746 113.663 137.87 114.497 138.828C115.517 140.002 116.753 141.176 118.268 142.413C119.257 143.216 119.411 144.669 118.608 145.658C118.175 146.245 117.495 146.554 116.815 146.554Z" fill="white"/>
<path d="M161.69 105.11C160.948 105.11 160.237 104.77 159.774 104.091C154.427 96.3025 145.619 91.6667 136.224 91.6667C133.412 91.6667 130.599 92.0685 127.911 92.9029C126.705 93.2738 125.407 92.5939 125.006 91.3577C124.604 90.1215 125.315 88.8235 126.551 88.4526C129.703 87.4946 132.948 87 136.224 87C147.164 87 157.394 92.4085 163.606 101.433C164.317 102.483 164.069 103.936 163.019 104.647C162.617 104.987 162.153 105.11 161.69 105.11Z" fill="white"/>
<path d="M125.684 138.394C121.697 138.394 118.452 135.149 118.452 131.162C118.452 127.175 121.697 123.93 125.684 123.93C129.671 123.93 132.916 127.175 132.916 131.162C132.916 135.149 129.671 138.394 125.684 138.394ZM125.684 128.566C124.263 128.566 123.088 129.741 123.088 131.162C123.088 132.584 124.263 133.758 125.684 133.758C127.106 133.758 128.28 132.584 128.28 131.162C128.28 129.741 127.106 128.566 125.684 128.566Z" fill="white"/>
<path d="M130.597 133.48C129.33 133.48 128.279 132.429 128.279 131.162V111.383C128.279 108.416 130.134 105.975 133.008 105.202L142.835 102.513C145.802 101.71 147.657 102.483 148.677 103.255C150.16 104.399 150.902 106.222 150.902 108.694V127.886C150.902 129.153 149.851 130.204 148.584 130.204C147.317 130.204 146.266 129.153 146.266 127.886V108.694C146.266 107.644 146.05 107.087 145.833 106.964C145.617 106.809 144.968 106.747 144.01 106.995L134.182 109.683C133.317 109.931 132.884 110.487 132.884 111.383V131.162C132.915 132.429 131.864 133.48 130.597 133.48Z" fill="white"/>
<path d="M143.672 135.119C139.685 135.119 136.44 131.874 136.44 127.888C136.44 123.901 139.685 120.656 143.672 120.656C147.659 120.656 150.904 123.901 150.904 127.888C150.904 131.874 147.659 135.119 143.672 135.119ZM143.672 125.292C142.25 125.292 141.076 126.466 141.076 127.888C141.076 129.309 142.25 130.484 143.672 130.484C145.093 130.484 146.268 129.309 146.268 127.888C146.268 126.466 145.093 125.292 143.672 125.292Z" fill="white"/>
<path d="M130.599 118.739C129.579 118.739 128.652 118.059 128.374 117.039C128.034 115.803 128.776 114.536 130.012 114.196L147.998 109.282C149.235 108.942 150.502 109.684 150.842 110.92C151.182 112.156 150.44 113.423 149.204 113.763L131.217 118.677C131.001 118.739 130.784 118.739 130.599 118.739Z" fill="white"/>
</svg>
