<svg width="203" height="167" viewBox="0 0 203 167" fill="none" xmlns="http://www.w3.org/2000/svg">
<path d="M21.8428 159.061H59.5283" stroke="white" stroke-width="6" stroke-linecap="round" stroke-linejoin="round"/>
<path d="M3 141.726V93.4882C3 92.2394 4.01235 91.2271 5.26113 91.2271H76.11C77.3589 91.2271 78.3711 92.2394 78.3711 93.4882V141.726C78.3711 142.975 77.3589 143.987 76.11 143.987H5.26113C4.01235 143.987 3 142.975 3 141.726Z" stroke="white" stroke-width="6"/>
<path d="M100.965 57.9539L101.011 57.9022" stroke="white" stroke-width="6" stroke-linecap="round" stroke-linejoin="round"/>
<path d="M78.0867 73.4642V5.74536C78.0867 4.22914 79.3158 3 80.832 3H121.097C122.614 3 123.843 4.22914 123.843 5.74536V73.4642C123.843 74.9806 122.614 76.2096 121.097 76.2096H80.832C79.3158 76.2096 78.0867 74.9806 78.0867 73.4642Z" stroke="white" stroke-width="6"/>
<path d="M129.43 135.699V98.5043C129.43 94.4852 132.688 91.2271 136.707 91.2271H186.193C190.212 91.2271 193.47 94.4852 193.47 98.5043V135.699M129.43 135.699H193.47M129.43 135.699L124.044 154.742C122.73 159.387 126.219 164 131.046 164H191.854C196.681 164 200.17 159.387 198.856 154.742L193.47 135.699" stroke="white" stroke-width="6"/>
<path d="M157.812 153.084H165.089" stroke="white" stroke-width="6" stroke-linecap="round" stroke-linejoin="round"/>
</svg>
