<svg width="81" height="81" viewBox="0 0 81 81" fill="none" xmlns="http://www.w3.org/2000/svg">
<circle cx="40.5" cy="40.5" r="40.5" fill="#232323"/>
<path d="M40.3179 45.7817C44.0457 45.7817 47.0679 42.781 47.0679 39.0796C47.0679 35.3781 44.0457 32.3774 40.3179 32.3774C36.5899 32.3774 33.5679 35.3781 33.5679 39.0796C33.5679 42.781 36.5899 45.7817 40.3179 45.7817Z" stroke="white" stroke-width="3" stroke-linecap="round" stroke-linejoin="round"/>
<path d="M25.1304 45.7819V32.3777C25.1304 27.7508 28.908 24 33.5679 24H47.0679C51.7277 24 55.5054 27.7508 55.5054 32.3777V45.7819C55.5054 50.4087 51.7277 54.1596 47.0679 54.1596H33.5679C28.908 54.1596 25.1304 50.4087 25.1304 45.7819Z" stroke="white" stroke-width="3"/>
<path d="M49.5991 29.8816L49.6164 29.8623" stroke="white" stroke-width="3" stroke-linecap="round" stroke-linejoin="round"/>
</svg>
