<svg width="60" height="63" viewBox="0 0 60 63" fill="none" xmlns="http://www.w3.org/2000/svg">
<path d="M59.35 31.5C59.35 48.6453 46.1521 62.5 29.925 62.5C13.6979 62.5 0.5 48.6453 0.5 31.5C0.5 14.3547 13.6979 0.5 29.925 0.5C46.1521 0.5 59.35 14.3547 59.35 31.5Z" stroke="#1ED760"/>
<path d="M9.3563 21.3431L9.35597 21.3422C8.94536 20.169 9.74531 18.601 11.3381 18.0781L11.3386 18.078C24.238 13.8308 37.8311 15.0691 49.3431 20.9813L49.3436 20.9815C50.7349 21.6941 51.1892 23.2605 50.5688 24.3406C49.9244 25.4587 48.5031 25.8448 47.3164 25.2415C36.8151 19.8747 24.3715 18.7471 12.534 22.684C11.1532 23.14 9.77148 22.5369 9.3563 21.3431Z" stroke="#1ED760"/>
<path d="M11.6722 31.6876L11.672 31.687C11.3606 30.7896 11.9714 29.5587 13.2277 29.1409L13.2278 29.1409C24.3928 25.4248 36.1717 26.4993 46.1259 31.6502L46.1261 31.6503C47.2194 32.2155 47.5621 33.4369 47.0904 34.2633L47.0902 34.2636C47.0528 34.3292 47.0154 34.3966 46.98 34.4606C46.9678 34.4825 46.9559 34.5041 46.9442 34.525C46.4488 35.3879 45.348 35.6904 44.4258 35.2179C35.3217 30.5294 24.5097 29.5481 14.2376 33.0023C13.161 33.3628 12.0883 32.8826 11.7686 31.9735C11.7376 31.8803 11.7056 31.7842 11.6722 31.6876Z" stroke="#1ED760"/>
<path d="M41.4939 43.3941L41.4942 43.3942C42.1795 43.7502 43.0011 43.5241 43.3746 42.8802L43.6064 42.4631L43.6095 42.4575L43.6095 42.4575C43.9552 41.8536 43.7111 40.9343 42.8779 40.5017L42.8772 40.5013C34.4281 36.0981 24.4085 35.1825 14.923 38.3712L14.9229 38.3712C13.9524 38.6971 13.5082 39.633 13.7341 40.2856L13.7358 40.2906L13.7358 40.2906C13.7872 40.4442 13.8379 40.596 13.8897 40.7474C14.1233 41.416 14.9152 41.7848 15.7368 41.5065L41.4939 43.3941ZM41.4939 43.3941C33.7343 39.37 24.5012 38.5312 15.7371 41.5064L41.4939 43.3941Z" stroke="#1ED760"/>
</svg>
