<svg width="60" height="63" viewBox="0 0 60 63" fill="none" xmlns="http://www.w3.org/2000/svg">
<path fill-rule="evenodd" clip-rule="evenodd" d="M59.85 31.5C59.85 48.897 46.4521 63 29.925 63C13.3979 63 0 48.897 0 31.5C0 14.103 13.3979 0 29.925 0C46.4521 0 59.85 14.103 59.85 31.5ZM12.6913 23.1586C24.4006 19.2642 36.7061 20.3802 47.0899 25.6872C48.4961 26.4021 50.2156 25.9555 51.0023 24.5897C51.7855 23.2263 51.1788 21.3597 49.5715 20.5365C37.9417 14.5638 24.2101 13.3136 11.1822 17.6031C9.38669 18.1924 8.36035 20.0111 8.88404 21.5073C9.40656 23.0097 11.105 23.6828 12.6913 23.1586ZM44.1977 35.6629C35.212 31.0351 24.5395 30.0655 14.3966 33.4764C13.1107 33.907 11.7209 33.3533 11.2954 32.1351C11.2638 32.0404 11.2322 31.9457 11.1995 31.8509C10.7764 30.6315 11.6121 29.1513 13.0698 28.6665C24.3642 24.9074 36.2827 25.9939 46.3555 31.2061C47.6624 31.8817 48.158 33.4013 47.5245 34.5112C47.4886 34.5741 47.4534 34.6376 47.4184 34.7008L47.3795 34.7708C46.7425 35.8844 45.3409 36.2486 44.1977 35.6629ZM15.8975 41.9799C24.5313 39.0489 33.6233 39.8758 41.2636 43.8379C42.173 44.3104 43.2952 44.0188 43.8095 43.1267L44.0433 42.7059C44.5518 41.8175 44.1532 40.6006 43.1082 40.0579C34.5398 35.5926 24.3793 34.6648 14.7636 37.8972C13.5946 38.2897 12.9237 39.4735 13.2615 40.4492C13.3129 40.603 13.3644 40.7568 13.417 40.9106C13.7571 41.8876 14.8664 42.3294 15.8975 41.9799Z" fill="#1ED760"/>
</svg>
