<svg width="78" height="83" viewBox="0 0 78 83" fill="none" xmlns="http://www.w3.org/2000/svg">
<path fill-rule="evenodd" clip-rule="evenodd" d="M78 41.5C78 64.1437 60.5391 82.5 39 82.5C17.4609 82.5 0 64.1437 0 41.5C0 18.8563 17.4609 0.5 39 0.5C60.5391 0.5 78 18.8563 78 41.5ZM16.1852 30.8397C31.5794 25.8661 47.7574 27.2914 61.4089 34.0691C63.2577 34.9821 65.5184 34.4116 66.5527 32.6673C67.5823 30.9262 66.7847 28.5423 64.6716 27.491C49.3818 19.8632 31.3289 18.2666 14.2011 23.7447C11.8406 24.4974 10.4913 26.82 11.1798 28.7309C11.8667 30.6496 14.0997 31.5092 16.1852 30.8397ZM57.2915 47.1211C45.542 40.7914 31.5869 39.4652 18.3241 44.1304C16.6428 44.7195 14.8254 43.9621 14.2691 42.296L14.269 42.2956C14.2277 42.1662 14.1865 42.0367 14.1437 41.9072C13.5904 40.2393 14.6833 38.2147 16.5893 37.5516C31.3576 32.4101 46.9421 33.8961 60.1131 41.0253C61.822 41.9493 62.4701 44.0277 61.6416 45.5458C61.5947 45.6319 61.5486 45.7189 61.5028 45.8054L61.4521 45.9009C60.6191 47.424 58.7864 47.9222 57.2915 47.1211ZM20.5916 54.9252C31.9778 51.3008 43.9683 52.3233 54.0441 57.2227C55.2435 57.807 56.7234 57.4464 57.4017 56.3433L57.71 55.8229C58.3806 54.7243 57.8549 53.2195 56.4767 52.5484C45.1769 47.0266 31.7774 45.8794 19.0962 49.8766C17.5546 50.3619 16.6698 51.8257 17.1153 53.0323L17.1155 53.033C17.1833 53.223 17.251 53.4129 17.3203 53.6029C17.7689 54.811 19.2319 55.3573 20.5916 54.9252Z" fill="black"/>
</svg>
