<svg width="27" height="27" viewBox="0 0 27 27" fill="none" xmlns="http://www.w3.org/2000/svg">
<path fill-rule="evenodd" clip-rule="evenodd" d="M20.88 11.1903V1.19433C20.88 0.699582 21.2646 0.297607 21.7935 0.297607H25.5438C26.0246 0.297607 26.4093 0.699582 26.4093 1.19433V25.3252C26.4093 25.8199 26.0246 26.2214 25.5438 26.2214H21.7935C21.2646 26.2214 20.88 25.8199 20.88 25.3252V15.3291L2.60921 25.8824C2.17649 26.131 1.6476 26.131 1.21487 25.8824C0.782138 25.6338 0.493652 25.1747 0.493652 24.6775C0.493652 19.4425 0.493652 7.07703 0.493652 1.8415C0.493652 1.34483 0.782138 0.885663 1.21487 0.637085C1.6476 0.388507 2.17649 0.388471 2.60921 0.636568L20.88 11.1903Z" fill="white"/>
</svg>
