<svg width="60" height="60" viewBox="0 0 60 60" fill="none" xmlns="http://www.w3.org/2000/svg">
<path fill-rule="evenodd" clip-rule="evenodd" d="M30.2576 0.603027C46.6072 0.603027 59.8792 13.8748 59.8792 30.2223C59.8792 46.5703 46.6072 59.8421 30.2576 59.8421C13.908 59.8421 0.635986 46.5703 0.635986 30.2223C0.635986 13.8748 13.908 0.603027 30.2576 0.603027ZM26.7953 18.3819C26.7953 17.7232 26.2183 17.188 25.5932 17.188H20.5921C19.9189 17.188 19.3899 17.7232 19.3899 18.3819V41.9175C19.3899 42.5767 19.9189 43.1118 20.5921 43.1118H25.5932C26.2183 43.1118 26.7953 42.5767 26.7953 41.9175V18.3819ZM41.6062 18.3819C41.6062 17.7232 41.0772 17.188 40.404 17.188H35.4029C34.7297 17.188 34.2008 17.7232 34.2008 18.3819V41.9175C34.2008 42.5767 34.7297 43.1118 35.4029 43.1118H40.404C41.0772 43.1118 41.6062 42.5767 41.6062 41.9175V18.3819Z" fill="white"/>
</svg>
