<svg width="27" height="27" viewBox="0 0 27 27" fill="none" xmlns="http://www.w3.org/2000/svg">
<path fill-rule="evenodd" clip-rule="evenodd" d="M5.69717 15.3286V25.3246C5.69717 25.8193 5.31252 26.2213 4.78363 26.2213H1.03332C0.552511 26.2213 0.167864 25.8193 0.167864 25.3246L0.167864 1.19376C0.167864 0.699003 0.552511 0.297544 1.03332 0.297544H4.78363C5.31252 0.297544 5.69717 0.699003 5.69717 1.19376V11.1898L23.9679 0.636505C24.4007 0.387928 24.9296 0.387928 25.3623 0.636505C25.795 0.885084 26.0835 1.34424 26.0835 1.84139C26.0835 7.07644 26.0835 19.4419 26.0835 24.6774C26.0835 25.1741 25.795 25.6333 25.3623 25.8818C24.9296 26.1304 24.4007 26.1304 23.9679 25.8824L5.69717 15.3286Z" fill="white"/>
</svg>
