<svg width="31" height="28" viewBox="0 0 31 28" fill="none" xmlns="http://www.w3.org/2000/svg">
<path fill-rule="evenodd" clip-rule="evenodd" d="M17.2363 21.1063L18.8965 19.5229C19.4823 18.9659 19.4823 18.0668 18.8965 17.5097C18.3157 16.9526 17.3648 16.9526 16.779 17.5097L11.6038 22.4305L16.779 27.3515C17.3648 27.9037 18.3157 27.9037 18.8965 27.3515C19.4823 26.7944 19.4823 25.8903 18.8965 25.3332L17.2363 23.7549H23.3209C27.2625 23.7549 30.4642 20.7055 30.4642 16.9574V7.01306C30.4642 3.26498 27.2625 0.220581 23.3209 0.220581H7.34359C3.39679 0.220581 0.195068 3.26498 0.195068 7.01306V16.9574C0.195068 20.7055 3.39679 23.7549 7.34359 23.7549H8.76205V21.1063H7.34359C4.93337 21.1063 2.9806 19.2444 2.9806 16.9574V7.01306C2.9806 4.7261 4.93337 2.86435 7.34359 2.86435H23.3209C25.7259 2.86435 27.6843 4.7261 27.6843 7.01306V16.9574C27.6843 19.2444 25.7259 21.1063 23.3209 21.1063H17.2363Z" fill="white"/>
</svg>
