<svg width="32" height="27" viewBox="0 0 32 27" fill="none" xmlns="http://www.w3.org/2000/svg">
<path fill-rule="evenodd" clip-rule="evenodd" d="M25.4936 22.5356C25.5501 22.5356 25.6015 22.565 25.622 22.6188C25.6477 22.6676 25.6326 22.7263 25.5915 22.7654C25.165 23.171 24.3116 23.9822 24.3116 23.9822C23.7257 24.5392 23.7257 25.4432 24.3116 26.0003C24.8974 26.5574 25.8432 26.5574 26.429 26.0003C26.429 26.0003 30.3191 22.306 31.3521 21.3189C31.4189 21.2554 31.4549 21.1674 31.4549 21.0795C31.4549 20.9915 31.4189 20.9035 31.3521 20.84C30.3191 19.8529 26.429 16.1585 26.429 16.1585C25.8432 15.6014 24.8974 15.6014 24.3116 16.1585C23.7257 16.7156 23.7257 17.6197 24.3116 18.1768C24.3116 18.1768 25.211 19.0319 25.6529 19.4522C25.6941 19.4912 25.7096 19.5499 25.6839 19.5988C25.6633 19.6525 25.6119 19.6819 25.5554 19.6819C24.7742 19.6819 22.9449 19.6769 22.9449 19.6769C22.2563 19.6769 21.5673 19.3593 20.8427 18.8951C19.9228 18.2989 18.9927 17.4584 18.0471 16.4811C18.0471 16.4811 17.4922 15.9093 17.2044 15.6112C17.1582 15.5624 17.0965 15.5331 17.0245 15.5331C16.9577 15.5282 16.8909 15.5526 16.8447 15.5965C16.4284 15.963 15.4313 16.8329 15.0151 17.1994C14.9637 17.2434 14.9328 17.3021 14.9328 17.3656C14.9276 17.4291 14.9536 17.4926 14.9998 17.5415C15.2876 17.8396 15.8426 18.4113 15.8426 18.4113C18.2528 20.8987 20.7093 22.5259 22.9397 22.5259C22.9397 22.5259 24.7278 22.5307 25.4936 22.5356ZM25.5915 3.95166C25.6326 3.99075 25.6477 4.0445 25.622 4.09826C25.6015 4.14712 25.5501 4.18129 25.4936 4.18129C24.7278 4.18129 22.9397 4.18616 22.9397 4.18616C21.3723 4.18616 19.7021 4.94365 18.0371 6.27283C15.9455 7.94407 13.7765 10.5487 11.6181 13.163C9.59328 15.6064 7.58423 18.0643 5.62625 19.6281C4.59329 20.4539 3.62169 21.0502 2.65041 21.0502C2.65041 21.0502 1.04702 21.0502 0.414912 21.0502C0.271018 21.0502 0.157959 21.1576 0.157959 21.2895C0.157959 21.8319 0.157959 23.1172 0.157959 23.6547C0.157959 23.7231 0.183976 23.7817 0.230227 23.8306C0.281618 23.8746 0.342965 23.899 0.414912 23.899C0.841455 23.899 1.65873 23.899 1.65873 23.899H2.65041C4.22296 23.899 5.88834 23.1465 7.5534 21.8125C9.645 20.1412 11.8137 17.5366 13.9772 14.9222C15.9969 12.4789 18.0111 10.0209 19.9691 8.45713C21.002 7.63129 21.9684 7.03513 22.9397 7.03513H22.9449C22.9449 7.03513 24.7742 7.03026 25.5554 7.03026C25.6119 7.03026 25.6633 7.06443 25.6839 7.1133C25.7096 7.16216 25.6941 7.2208 25.6529 7.2599C25.211 7.68504 24.3116 8.54026 24.3116 8.54026C23.7257 9.09735 23.7257 9.99646 24.3116 10.5535C24.8974 11.1106 25.8432 11.1106 26.429 10.5535C26.429 10.5535 30.3191 6.85917 31.3521 5.87206C31.4189 5.80854 31.4549 5.72554 31.4549 5.63269C31.4549 5.54473 31.4189 5.45675 31.3521 5.39323C30.3191 4.411 26.429 0.711753 26.429 0.711753C25.8432 0.159559 24.8974 0.159559 24.3116 0.711753C23.7257 1.26883 23.7257 2.17291 24.3116 2.72999C24.3116 2.72999 25.165 3.54118 25.5915 3.95166ZM1.65873 5.66686H2.65041C3.51377 5.66686 4.37737 6.14572 5.28699 6.82497C6.43814 7.68013 7.60479 8.87256 8.78677 10.2017C8.78677 10.2017 9.31064 10.793 9.58815 11.1058C9.62926 11.1546 9.69639 11.1839 9.7632 11.1888C9.83 11.1986 9.89649 11.1742 9.94788 11.1351C10.3796 10.7881 11.4125 9.95732 11.8493 9.61037C11.9007 9.56639 11.9317 9.50783 11.9369 9.4443C11.942 9.38077 11.9214 9.31717 11.8802 9.2683C11.6027 8.95556 11.0737 8.36427 11.0737 8.36427C9.46513 6.55131 7.86158 4.98271 6.30958 4.01026C5.07107 3.23328 3.83753 2.81302 2.65041 2.81302H0.157959V5.66686H1.65873Z" fill="white"/>
</svg>
